<?xml version="1.0" encoding="UTF-8" standalone="no"?>
<!DOCTYPE svg PUBLIC "-//W3C//DTD SVG 1.1//EN" "http://www.w3.org/Graphics/SVG/1.1/DTD/svg11.dtd">
<svg width="100%" height="100%" viewBox="0 0 126 185" version="1.1" xmlns="http://www.w3.org/2000/svg" xmlns:xlink="http://www.w3.org/1999/xlink" xml:space="preserve" xmlns:serif="http://www.serif.com/" style="fill-rule:evenodd;clip-rule:evenodd;stroke-linecap:round;stroke-linejoin:round;stroke-miterlimit:2;">
    <g>
        <path id="Direction-Icon" d="M0.4,62.517L0.4,23.127C0.4,10.629 10.624,0.4 23.13,0.4L102.301,0.4C114.803,0.4 125.031,10.629 125.031,23.127L125.031,160.977C125.031,173.477 114.803,183.707 102.301,183.707L23.13,183.707C10.624,183.707 0.4,173.477 0.4,160.977L0.4,72.537M98.585,67.417C98.585,47.917 82.776,32.107 63.276,32.107C43.775,32.107 27.966,47.917 27.966,67.417C27.966,86.917 43.775,102.727 63.276,102.727C82.776,102.727 98.585,86.917 98.585,67.417Z" style="fill:white;stroke:rgb(4,3,3);stroke-width:0.8px;"/>
        <path id="Direction-Icon1" serif:id="Direction-Icon" d="M63.982,149.967C63.982,149.267 63.414,148.697 62.715,148.697C62.015,148.697 61.448,149.267 61.448,149.967L61.448,158.067C61.448,158.767 62.015,159.337 62.715,159.337C63.411,159.335 63.982,158.763 63.982,158.067L63.982,149.967ZM38.436,152.817L40.964,150.347L39.194,148.537L34.439,153.177C34.014,153.607 33.958,154.097 34.154,154.567C34.212,154.707 34.245,154.777 34.417,154.967L39.168,159.837L40.982,158.067L38.332,155.347L57.648,155.347C58.348,155.347 58.915,154.777 58.915,154.077C58.915,153.377 58.348,152.817 57.648,152.817L38.436,152.817ZM86.991,155.557L84.465,158.017L86.235,159.837L90.987,155.197C91.163,155.017 91.198,154.937 91.259,154.807C91.467,154.337 91.422,153.847 91.008,153.397L86.257,148.537L84.444,150.307L87.093,153.017L67.795,153.017C67.098,153.017 66.525,153.59 66.525,154.287C66.525,154.984 67.098,155.557 67.795,155.557L86.991,155.557Z" style="fill:rgb(4,3,3);"/>
        <path id="Direction-Socket" d="M120.203,67.417C120.203,98.857 94.716,124.347 63.276,124.347C31.836,124.347 6.348,98.857 6.348,67.417C6.348,35.977 31.835,10.488 63.276,10.488C94.717,10.488 120.203,35.977 120.203,67.417ZM31.809,67.417C31.809,84.797 45.897,98.877 63.276,98.877C80.655,98.877 94.742,84.797 94.742,67.417C94.742,50.037 80.654,35.947 63.276,35.947C45.897,35.947 31.809,50.037 31.809,67.417Z" style="fill:white;stroke:black;stroke-width:0.83px;stroke-linecap:butt;stroke-linejoin:miter;stroke-miterlimit:10;"/>
        <path d="M98.585,67.417C98.585,47.917 82.776,32.107 63.276,32.107C43.775,32.107 27.966,47.917 27.966,67.417C27.966,86.917 43.775,102.727 63.276,102.727C82.776,102.727 98.585,86.917 98.585,67.417Z" style="fill:none;fill-rule:nonzero;stroke:black;stroke-width:0.83px;stroke-linecap:butt;stroke-linejoin:miter;stroke-miterlimit:10;"/>
        <path d="M88.276,67.418C88.276,53.608 77.083,42.418 63.276,42.418C49.469,42.418 38.276,53.608 38.276,67.418C38.276,81.228 49.468,92.418 63.276,92.418C77.084,92.418 88.276,81.228 88.276,67.418Z" style="fill:none;fill-rule:nonzero;stroke:black;stroke-width:0.83px;stroke-linecap:butt;stroke-linejoin:miter;stroke-miterlimit:10;"/>
    </g>
</svg>
