<?xml version="1.0" encoding="UTF-8" standalone="no"?>
<!DOCTYPE svg PUBLIC "-//W3C//DTD SVG 1.1//EN" "http://www.w3.org/Graphics/SVG/1.1/DTD/svg11.dtd">
<svg width="100%" height="100%" viewBox="0 0 126 185" version="1.1" xmlns="http://www.w3.org/2000/svg" xmlns:xlink="http://www.w3.org/1999/xlink" xml:space="preserve" xmlns:serif="http://www.serif.com/" style="fill-rule:evenodd;clip-rule:evenodd;stroke-miterlimit:10;">
    <path id="Reset-Socket" d="M120.203,67.417C120.203,98.857 94.715,124.347 63.275,124.347C31.836,124.347 6.347,98.857 6.347,67.417C6.347,35.977 31.835,10.488 63.275,10.488C94.715,10.488 120.203,35.977 120.203,67.417ZM31.809,67.417C31.809,84.797 45.897,98.877 63.275,98.877C80.653,98.877 94.741,84.797 94.741,67.417C94.741,50.037 80.653,35.947 63.275,35.947C45.897,35.947 31.809,50.037 31.809,67.417Z" style="fill:white;stroke:black;stroke-width:0.83px;"/>
    <path d="M98.586,67.417C98.586,47.917 82.777,32.107 63.276,32.107C43.775,32.107 27.966,47.917 27.966,67.417C27.966,86.917 43.775,102.727 63.276,102.727C82.777,102.727 98.586,86.917 98.586,67.417" style="fill:none;fill-rule:nonzero;stroke:black;stroke-width:0.83px;"/>
    <path d="M88.275,67.417C88.275,53.607 77.082,42.417 63.275,42.417C49.468,42.417 38.275,53.607 38.275,67.417C38.275,81.227 49.468,92.417 63.275,92.417C77.082,92.417 88.275,81.227 88.275,67.417" style="fill:none;fill-rule:nonzero;stroke:black;stroke-width:0.83px;"/>
    <path id="Reset-Icon" d="M48.431,149.447C48.431,148.747 48.999,148.177 49.698,148.177C50.398,148.177 50.965,148.747 50.965,149.447L50.965,158.847C50.965,159.547 50.398,160.117 49.698,160.117C49.003,160.115 48.431,159.543 48.431,158.847L48.431,149.447ZM54.739,153.697C54.517,153.917 54.512,154.281 54.729,154.507L58.193,158.067L56.38,159.837L51.628,154.967C51.197,154.497 51.164,153.977 51.407,153.507C51.464,153.387 51.494,153.337 51.65,153.177L56.401,148.537L58.171,150.347L54.739,153.697ZM61.802,155.347L64.452,158.067L62.639,159.837L57.399,154.467C57.182,154.241 57.187,153.877 57.409,153.657L62.66,148.537L64.431,150.347L61.905,152.817L78.856,152.817C79.555,152.817 80.123,153.377 80.123,154.077C80.123,154.777 79.555,155.347 78.856,155.347L61.802,155.347Z" style="fill:rgb(4,3,3);"/>
</svg>
