<?xml version="1.0" encoding="UTF-8" standalone="no"?>
<!DOCTYPE svg PUBLIC "-//W3C//DTD SVG 1.1//EN" "http://www.w3.org/Graphics/SVG/1.1/DTD/svg11.dtd">
<svg width="100%" height="100%" viewBox="0 0 66 25" version="1.1" xmlns="http://www.w3.org/2000/svg" xmlns:xlink="http://www.w3.org/1999/xlink" xml:space="preserve" xmlns:serif="http://www.serif.com/" style="fill-rule:evenodd;clip-rule:evenodd;stroke-linejoin:round;stroke-miterlimit:2;">
    <path id="Light-Green" serif:id="Light Green" d="M0,2.633C0,1.18 1.18,0 2.633,0C4.087,0 5.267,1.18 5.267,2.633L5.267,22.177C5.267,23.63 4.087,24.81 2.633,24.81C1.18,24.81 0,23.63 0,22.177L0,2.633ZM13.11,11.479C12.643,11.934 12.634,12.681 13.088,13.148L20.289,20.548L16.52,24.227L6.645,14.111C5.749,13.141 5.679,12.061 6.184,11.073C6.303,10.84 6.366,10.72 6.69,10.387L16.565,0.745L20.244,4.514L13.11,11.479ZM27.79,14.906L33.297,20.548L29.529,24.227L18.639,13.071C18.184,12.605 18.193,11.857 18.659,11.401L29.573,0.745L33.253,4.514L28.003,9.639L63.234,9.639C64.688,9.64 65.868,10.819 65.868,12.273C65.868,13.726 64.688,14.906 63.234,14.906L27.79,14.906Z"/>
</svg>
