<?xml version="1.0" encoding="UTF-8" standalone="no"?>
<!DOCTYPE svg PUBLIC "-//W3C//DTD SVG 1.1//EN" "http://www.w3.org/Graphics/SVG/1.1/DTD/svg11.dtd">
<svg width="100%" height="100%" viewBox="0 0 92 84" version="1.1" xmlns="http://www.w3.org/2000/svg" xmlns:xlink="http://www.w3.org/1999/xlink" xml:space="preserve" xmlns:serif="http://www.serif.com/" style="fill-rule:evenodd;clip-rule:evenodd;stroke-linejoin:round;stroke-miterlimit:2;">
    <path d="M78.05,36.284C75.712,22.458 65.019,10.21 51.443,6.538C38.981,3.167 24.836,6.964 15.734,16.173C5.797,26.228 2.422,42.295 7.769,55.615C12.321,66.955 22.863,75.688 34.885,77.993C46.191,80.16 58.396,76.671 66.929,68.715C66.929,68.715 68.215,67.824 69.311,68.074C71.397,68.551 72.019,71.263 69.636,73.374C59.122,82.689 43.824,86.15 30.349,82.324C16.685,78.445 5.356,67.135 1.467,53.439C-4.165,33.608 6.848,10.221 27.166,2.637C31.757,0.923 36.649,0.044 41.562,0.001C41.834,-0 41.833,-0 42.104,0.001C61.564,0.17 79.681,15.11 83.183,34.949L87.626,29.114L91.816,32.304L83.16,43.666C82.85,44.011 82.735,44.082 82.511,44.217C82.133,44.443 81.739,44.581 81.333,44.612C80.742,44.721 80.098,44.552 79.464,43.981L68.576,35.687L71.767,31.498L78.05,36.284Z"/>
</svg>
