<?xml version="1.0" encoding="UTF-8" standalone="no"?>
<!DOCTYPE svg PUBLIC "-//W3C//DTD SVG 1.1//EN" "http://www.w3.org/Graphics/SVG/1.1/DTD/svg11.dtd">
<svg width="100%" height="100%" viewBox="0 0 120 24" version="1.1" xmlns="http://www.w3.org/2000/svg" xmlns:xlink="http://www.w3.org/1999/xlink" xml:space="preserve" xmlns:serif="http://www.serif.com/" style="fill-rule:evenodd;clip-rule:evenodd;stroke-linejoin:round;stroke-miterlimit:2;">
    <path d="M110.042,14.589L104.792,19.714L108.471,23.483C111.763,20.269 115.054,17.055 118.346,13.841C118.712,13.464 118.786,13.313 118.913,13.026C119.344,12.056 119.251,11.048 118.391,10.118L108.516,0.001L104.747,3.68L110.255,9.322L70.145,9.322C68.691,9.322 67.511,10.502 67.511,11.955C67.511,13.408 68.691,14.588 70.145,14.589L110.042,14.589ZM9.125,8.895L14.379,3.77C13.153,2.513 11.927,1.257 10.701,0L0.818,9.642C-0.065,10.551 -0.183,11.556 0.225,12.538C0.345,12.827 0.415,12.98 0.772,13.366L10.647,23.483L14.416,19.804L8.908,14.162L49.056,14.162C50.509,14.161 51.689,12.982 51.689,11.528C51.689,10.075 50.509,8.895 49.056,8.895L9.125,8.895ZM62.219,2.977C62.219,1.523 61.039,0.343 59.586,0.343C58.132,0.343 56.952,1.523 56.952,2.977L56.952,19.812C56.952,21.266 58.132,22.446 59.586,22.446C61.039,22.446 62.219,21.266 62.219,19.812L62.219,2.977Z" style="fill-rule:nonzero;"/>
</svg>
