<?xml version="1.0" encoding="UTF-8" standalone="no"?>
<!DOCTYPE svg PUBLIC "-//W3C//DTD SVG 1.1//EN" "http://www.w3.org/Graphics/SVG/1.1/DTD/svg11.dtd">
<svg width="100%" height="100%" viewBox="0 0 66 25" version="1.1" xmlns="http://www.w3.org/2000/svg" xmlns:xlink="http://www.w3.org/1999/xlink" xml:space="preserve" xmlns:serif="http://www.serif.com/" style="fill-rule:evenodd;clip-rule:evenodd;stroke-linejoin:round;stroke-miterlimit:2;">
    <path d="M65.868,2.633L65.868,22.177C65.868,23.63 64.688,24.81 63.234,24.81C61.781,24.81 60.601,23.63 60.601,22.177L60.601,2.633C60.601,1.18 61.781,0 63.234,0C64.688,0 65.868,1.18 65.868,2.633ZM51.087,14.906L2.633,14.906C1.18,14.906 0,13.726 0,12.273C0,10.819 1.18,9.64 2.633,9.639L50.874,9.639L45.624,4.514L49.303,0.745L59.178,10.387C59.501,10.72 59.564,10.84 59.683,11.073C60.189,12.061 60.119,13.141 59.223,14.111L49.348,24.227L45.579,20.548L51.087,14.906Z"/>
</svg>
