<?xml version="1.0" encoding="UTF-8" standalone="no"?>
<!DOCTYPE svg PUBLIC "-//W3C//DTD SVG 1.1//EN" "http://www.w3.org/Graphics/SVG/1.1/DTD/svg11.dtd">
<svg width="100%" height="100%" viewBox="0 0 126 185" version="1.1" xmlns="http://www.w3.org/2000/svg" xmlns:xlink="http://www.w3.org/1999/xlink" xml:space="preserve" xmlns:serif="http://www.serif.com/" style="fill-rule:evenodd;clip-rule:evenodd;stroke-miterlimit:10;">
    <path id="Transpose-Socket" d="M120.203,67.416C120.203,98.856 94.716,124.346 63.275,124.346C31.834,124.346 6.348,98.856 6.348,67.416C6.348,35.976 31.835,10.487 63.275,10.487C94.715,10.487 120.203,35.976 120.203,67.416ZM31.809,67.416C31.809,84.796 45.897,98.876 63.275,98.876C80.654,98.876 94.742,84.796 94.742,67.416C94.742,50.036 80.654,35.946 63.275,35.946C45.896,35.946 31.809,50.036 31.809,67.416Z" style="fill:white;stroke:black;stroke-width:0.83px;"/>
    <path d="M98.585,67.416C98.585,47.916 82.776,32.106 63.275,32.106C43.775,32.106 27.966,47.916 27.966,67.416C27.966,86.916 43.775,102.726 63.275,102.726C82.776,102.726 98.585,86.916 98.585,67.416Z" style="fill:none;fill-rule:nonzero;stroke:black;stroke-width:0.83px;"/>
    <path d="M88.275,67.416C88.275,53.606 77.083,42.416 63.275,42.416C49.467,42.416 38.275,53.606 38.275,67.416C38.275,81.226 49.468,92.416 63.275,92.416C77.082,92.416 88.275,81.226 88.275,67.416Z" style="fill:none;fill-rule:nonzero;stroke:black;stroke-width:0.83px;"/>
    <path id="Transpose-Icon" d="M80.392,151.426C79.267,144.766 74.122,138.876 67.59,137.106C61.594,135.486 54.788,137.316 50.409,141.746C45.628,146.586 44.004,154.316 46.577,160.726C48.767,166.176 53.839,170.386 59.623,171.486C65.063,172.536 70.935,170.856 75.041,167.026C75.041,167.026 75.66,166.596 76.187,166.716C77.191,166.946 77.49,168.256 76.343,169.266C71.285,173.746 63.924,175.416 57.441,173.576C50.867,171.706 45.416,166.266 43.545,159.676C40.835,150.136 46.133,138.886 55.91,135.236C58.126,134.411 60.471,133.981 62.836,133.966L63.097,133.966C72.46,134.046 81.177,141.236 82.861,150.776L84.999,147.976L87.015,149.506L82.851,154.976C82.701,155.136 82.646,155.176 82.538,155.236C82.356,155.346 82.167,155.416 81.972,155.426C81.687,155.486 81.377,155.396 81.072,155.126L75.833,151.136L77.369,149.116L80.392,151.426Z" style="fill:rgb(4,3,3);"/>
</svg>
