<?xml version="1.0" encoding="UTF-8" standalone="no"?>
<!DOCTYPE svg PUBLIC "-//W3C//DTD SVG 1.1//EN" "http://www.w3.org/Graphics/SVG/1.1/DTD/svg11.dtd">
<svg width="100%" height="100%" viewBox="0 0 276 185" version="1.1" xmlns="http://www.w3.org/2000/svg" xmlns:xlink="http://www.w3.org/1999/xlink" xml:space="preserve" xmlns:serif="http://www.serif.com/" style="fill-rule:evenodd;clip-rule:evenodd;stroke-linejoin:round;stroke-miterlimit:2;">
    <path id="Direction-Icon" d="M163.719,63.517L150.425,63.517L150.425,23.127C150.425,10.629 160.649,0.4 173.155,0.4L252.326,0.4C264.828,0.4 275.056,10.629 275.056,23.127L275.056,160.977C275.056,173.477 264.828,183.707 252.326,183.707L173.155,183.707C160.649,183.707 150.425,173.477 150.425,160.977L150.425,71.537L163.719,71.537L163.719,63.517ZM248.61,67.417C248.61,47.917 232.801,32.107 213.301,32.107C193.8,32.107 177.991,47.917 177.991,67.417C177.991,86.917 193.8,102.727 213.301,102.727C232.801,102.727 248.61,86.917 248.61,67.417Z" style="fill:white;stroke:rgb(4,3,3);stroke-width:0.8px;"/>
    <path id="Direction-Icon1" serif:id="Direction-Icon" d="M214.007,149.967C214.007,149.267 213.439,148.697 212.74,148.697C212.04,148.697 211.473,149.267 211.473,149.967L211.473,158.067C211.473,158.767 212.04,159.337 212.74,159.337C213.436,159.335 214.007,158.763 214.007,158.067L214.007,149.967ZM188.461,152.817L190.989,150.347L189.219,148.537L184.464,153.177C184.039,153.607 183.983,154.097 184.179,154.567C184.237,154.707 184.27,154.777 184.442,154.967L189.193,159.837L191.007,158.067L188.357,155.347L207.673,155.347C208.373,155.347 208.94,154.777 208.94,154.077C208.94,153.377 208.373,152.817 207.673,152.817L188.461,152.817ZM237.016,155.557L234.49,158.017L236.26,159.837L241.012,155.197C241.188,155.017 241.223,154.937 241.284,154.807C241.492,154.337 241.447,153.847 241.033,153.397L236.282,148.537L234.469,150.307L237.118,153.017L217.82,153.017C217.123,153.017 216.55,153.59 216.55,154.287C216.55,154.984 217.123,155.557 217.82,155.557L237.016,155.557Z" style="fill:rgb(4,3,3);"/>
    <path id="Step-Icon" d="M156.373,71.537L125.032,71.537L125.032,160.977C125.032,173.477 114.803,183.707 102.302,183.707L23.13,183.707C10.625,183.707 0.4,173.477 0.4,160.977L0.4,23.127C0.4,10.629 10.625,0.4 23.13,0.4L102.302,0.4C114.803,0.4 125.032,10.629 125.032,23.127L125.032,63.517L156.373,63.517L156.373,71.537ZM98.725,67.417C98.725,47.917 82.916,32.107 63.415,32.107C43.914,32.107 28.105,47.917 28.105,67.417C28.105,86.917 43.914,102.727 63.415,102.727C82.916,102.727 98.725,86.917 98.725,67.417Z" style="fill:white;stroke:rgb(4,3,3);stroke-width:0.8px;"/>
    <path id="Step-Icon1" serif:id="Step-Icon" d="M72.873,155.347L70.223,158.067L72.037,159.837L76.788,154.967C77.219,154.497 77.252,153.977 77.009,153.507C76.952,153.387 76.922,153.337 76.766,153.177L72.015,148.537L70.245,150.347L72.771,152.817L49.56,152.817C48.861,152.817 48.293,153.377 48.293,154.077C48.293,154.777 48.861,155.347 49.56,155.347L72.873,155.347ZM79.985,149.447C79.985,148.747 79.417,148.177 78.718,148.177C78.022,148.179 77.451,148.751 77.451,149.447L77.451,158.847C77.451,159.547 78.019,160.117 78.718,160.117C79.414,160.115 79.985,159.543 79.985,158.847L79.985,149.447Z"/>
    <path id="Step-Socket" d="M120.343,67.417C120.343,98.857 94.855,124.347 63.415,124.347C31.975,124.347 6.487,98.857 6.487,67.417C6.487,35.977 31.975,10.488 63.415,10.488C94.855,10.488 120.343,35.977 120.343,67.417ZM31.949,67.417C31.949,84.797 46.037,98.877 63.415,98.877C80.794,98.877 94.881,84.797 94.881,67.417C94.881,50.037 80.794,35.947 63.415,35.947C46.037,35.947 31.949,50.037 31.949,67.417Z" style="fill:white;stroke:black;stroke-width:0.83px;stroke-linejoin:miter;stroke-miterlimit:10;"/>
    <path id="Direction-Socket" d="M270.228,67.417C270.228,98.857 244.741,124.347 213.301,124.347C181.861,124.347 156.373,98.857 156.373,67.417C156.373,35.977 181.86,10.488 213.301,10.488C244.742,10.488 270.228,35.977 270.228,67.417ZM181.834,67.417C181.834,84.797 195.922,98.877 213.301,98.877C230.68,98.877 244.767,84.797 244.767,67.417C244.767,50.037 230.679,35.947 213.301,35.947C195.922,35.947 181.834,50.037 181.834,67.417Z" style="fill:white;stroke:black;stroke-width:0.83px;stroke-linejoin:miter;stroke-miterlimit:10;"/>
    <path d="M248.61,67.417C248.61,47.917 232.801,32.107 213.301,32.107C193.8,32.107 177.991,47.917 177.991,67.417C177.991,86.917 193.8,102.727 213.301,102.727C232.801,102.727 248.61,86.917 248.61,67.417Z" style="fill:none;fill-rule:nonzero;stroke:black;stroke-width:0.83px;stroke-linejoin:miter;stroke-miterlimit:10;"/>
    <path d="M88.415,67.417C88.415,53.607 77.222,42.417 63.415,42.417C49.608,42.417 38.415,53.607 38.415,67.417C38.415,81.227 49.608,92.417 63.415,92.417C77.222,92.417 88.415,81.227 88.415,67.417Z" style="fill:none;fill-rule:nonzero;stroke:black;stroke-width:0.83px;stroke-linejoin:miter;stroke-miterlimit:10;"/>
    <path d="M238.301,67.418C238.301,53.608 227.108,42.418 213.301,42.418C199.493,42.418 188.301,53.608 188.301,67.418C188.301,81.227 199.493,92.418 213.301,92.418C227.109,92.418 238.301,81.227 238.301,67.418Z" style="fill:none;fill-rule:nonzero;stroke:black;stroke-width:0.83px;stroke-linejoin:miter;stroke-miterlimit:10;"/>
    <path d="M98.725,67.418C98.725,47.918 82.916,32.108 63.415,32.108C43.914,32.108 28.105,47.918 28.105,67.418C28.105,86.918 43.914,102.727 63.415,102.727C82.916,102.727 98.725,86.918 98.725,67.418Z" style="fill:none;fill-rule:nonzero;stroke:black;stroke-width:0.83px;stroke-linejoin:miter;stroke-miterlimit:10;"/>
</svg>
