<?xml version="1.0" standalone="no"?>
<!DOCTYPE svg PUBLIC "-//W3C//DTD SVG 20010904//EN"
 "http://www.w3.org/TR/2001/REC-SVG-20010904/DTD/svg10.dtd">
<svg version="1.0" xmlns="http://www.w3.org/2000/svg"
 width="512.000000pt" height="512.000000pt" viewBox="0 0 512.000000 512.000000"
 preserveAspectRatio="xMidYMid meet">
<metadata>
Created by potrace 1.11, written by Peter Selinger 2001-2013
</metadata>
<g transform="translate(0.000000,512.000000) scale(0.100000,-0.100000)"
fill="#000000" stroke="none">
<path d="M2384 5110 c-615 -42 -1189 -304 -1629 -744 -446 -447 -703 -1012
-744 -1636 -7 -112 -6 -136 5 -143 18 -10 18 -44 0 -54 -11 -7 -12 -31 -5
-143 41 -624 298 -1189 744 -1636 405 -406 910 -654 1485 -730 167 -22 473
-22 640 0 575 76 1080 324 1485 730 446 447 703 1012 744 1636 7 112 6 136 -5
143 -18 10 -18 44 0 54 11 7 12 31 5 143 -41 623 -298 1189 -744 1636 -524
524 -1240 793 -1981 744z m1521 -1270 c0 -18 -6 -26 -23 -28 -13 -2 -25 3 -28
12 -10 26 4 48 28 44 17 -2 23 -10 23 -28z m-127 11 c21 -13 10 -46 -16 -49
-24 -4 -38 18 -28 43 6 17 24 19 44 6z m252 -34 c0 -7 -5 -18 -12 -25 -18 -18
-36 -15 -48 7 -14 28 13 55 41 41 10 -6 19 -16 19 -23z m-347 -29 c7 -20 -12
-48 -33 -48 -19 0 -36 32 -25 50 9 14 52 12 58 -2z m431 -4 c21 -8 21 -50 0
-58 -32 -12 -57 27 -32 52 14 14 12 14 32 6z m-520 -87 c8 -12 7 -21 -5 -32
-21 -21 -49 -9 -49 20 0 36 34 44 54 12z m615 -11 c16 -20 3 -46 -24 -46 -13
0 -26 7 -29 16 -7 19 10 44 29 44 7 0 18 -6 24 -14z m-675 -91 c6 -17 -21 -48
-37 -42 -6 2 -15 11 -21 21 -9 13 -7 20 7 31 21 15 43 11 51 -10z m740 -18
c13 -21 -13 -51 -36 -42 -24 10 -29 32 -11 50 18 18 32 16 47 -8z m-806 -79
c18 -18 15 -36 -7 -48 -15 -7 -23 -6 -35 6 -12 12 -13 20 -6 35 12 22 30 25
48 7z m856 -31 c13 -21 -13 -51 -36 -42 -24 10 -29 32 -11 50 18 18 32 16 47
-8z m-910 -73 c9 -3 16 -16 16 -29 0 -25 -21 -38 -45 -29 -18 7 -20 50 -2 57
6 3 13 6 14 6 1 1 8 -2 17 -5z m951 -54 c0 -18 -6 -26 -23 -28 -13 -2 -25 3
-28 12 -10 26 4 48 28 44 17 -2 23 -10 23 -28z m-980 -90 c0 -18 -6 -26 -23
-28 -13 -2 -25 3 -28 12 -10 26 4 48 28 44 17 -2 23 -10 23 -28z m1019 -13 c9
-14 7 -21 -7 -32 -25 -18 -47 -9 -47 19 0 40 32 48 54 13z m-1070 -73 c19 -7
21 -50 4 -57 -34 -12 -68 43 -35 56 6 3 13 6 14 6 1 1 8 -2 17 -5z m1104 -26
c28 -28 3 -66 -33 -52 -18 7 -20 50 -2 57 19 8 22 8 35 -5z m-1124 -104 c7
-19 -10 -44 -29 -44 -19 0 -36 25 -29 44 3 9 16 16 29 16 13 0 26 -7 29 -16z
m1180 -20 c7 -19 -10 -44 -29 -44 -19 0 -36 25 -29 44 3 9 16 16 29 16 13 0
26 -7 29 -16z m-2220 -89 c7 -20 -18 -49 -38 -42 -25 10 -32 38 -12 53 20 14
42 9 50 -11z m990 9 c21 -8 21 -50 0 -58 -32 -12 -57 27 -32 52 14 14 12 14
32 6z m1270 -10 c9 -3 16 -16 16 -29 0 -25 -21 -38 -45 -29 -18 7 -20 50 -2
57 6 3 13 6 14 6 1 1 8 -2 17 -5z m-2370 -39 c7 -20 -18 -49 -38 -42 -25 10
-32 38 -12 53 20 14 42 9 50 -11z m204 -7 c18 -18 15 -36 -7 -48 -28 -14 -55
13 -41 41 12 22 30 25 48 7z m2246 -71 c13 -21 -13 -51 -36 -42 -24 10 -29 32
-11 50 18 18 32 16 47 -8z m-1369 -17 c0 -18 -6 -26 -23 -28 -13 -2 -25 3 -28
12 -10 26 4 48 28 44 17 -2 23 -10 23 -28z m-1161 5 c27 -28 -10 -69 -40 -44
-17 14 -18 31 -2 47 16 16 23 15 42 -3z m370 -18 c9 -14 7 -21 -7 -32 -25 -18
-47 -9 -47 19 0 40 32 48 54 13z m2244 -70 c3 -26 1 -28 -25 -25 -31 3 -44 35
-21 49 23 15 43 5 46 -24z m-1484 -22 c7 -20 -18 -49 -38 -42 -25 10 -32 38
-12 53 20 14 42 9 50 -11z m-1180 0 c27 -28 -10 -69 -40 -44 -17 14 -18 31 -2
47 16 16 23 15 42 -3z m486 0 c17 -21 5 -45 -24 -45 -28 0 -37 17 -24 43 11
21 31 22 48 2z m2275 -45 c0 -18 -6 -26 -23 -28 -13 -2 -25 3 -28 12 -10 26 4
48 28 44 17 -2 23 -10 23 -28z m115 -44 c0 -14 -5 -28 -10 -31 -17 -11 -50 5
-50 24 0 24 9 31 37 31 18 0 23 -6 23 -24z m-2320 -29 c0 -7 -5 -18 -12 -25
-18 -18 -36 -15 -48 7 -14 28 13 55 41 41 10 -6 19 -16 19 -23z m2428 24 c21
-13 10 -46 -16 -49 -24 -4 -38 18 -28 43 6 17 24 19 44 6z m-1849 -15 c16 -20
3 -46 -24 -46 -13 0 -26 7 -29 16 -7 19 10 44 29 44 7 0 18 -6 24 -14z m-3021
-20 c5 -25 -12 -39 -37 -31 -20 6 -28 34 -14 49 13 13 48 1 51 -18z m1847 -6
c0 -18 -6 -26 -23 -28 -24 -4 -38 18 -28 44 3 9 15 14 28 12 17 -2 23 -10 23
-28z m-1730 -20 c0 -18 -6 -26 -23 -28 -13 -2 -25 3 -28 12 -10 26 4 48 28 44
17 -2 23 -10 23 -28z m113 -43 c3 -23 0 -27 -23 -27 -30 0 -43 24 -25 46 19
22 45 13 48 -19z m2267 -27 c0 -18 -6 -26 -23 -28 -24 -4 -38 18 -28 44 3 9
15 14 28 12 17 -2 23 -10 23 -28z m479 4 c20 -19 20 -19 0 -38 -12 -12 -20
-13 -35 -6 -22 12 -25 30 -7 48 16 16 23 15 42 -4z m-1164 -13 c7 -15 6 -23
-5 -35 -28 -27 -69 10 -44 40 16 20 37 17 49 -5z m-1476 -16 c7 -20 -18 -49
-38 -42 -25 10 -32 38 -12 53 20 14 42 9 50 -11z m2230 -60 c9 -24 -4 -45 -29
-45 -27 0 -40 26 -24 46 15 18 45 18 53 -1z m-2149 -35 c0 -18 -6 -26 -23 -28
-24 -4 -38 18 -28 44 3 9 15 14 28 12 17 -2 23 -10 23 -28z m2509 14 c20 -19
20 -19 0 -38 -12 -12 -20 -13 -35 -6 -22 12 -25 30 -7 48 16 16 23 15 42 -4z
m-1149 -34 c0 -18 -6 -26 -23 -28 -24 -4 -38 18 -28 44 3 9 15 14 28 12 17 -2
23 -10 23 -28z m864 -34 c16 -20 3 -46 -24 -46 -13 0 -26 7 -29 16 -7 19 10
44 29 44 7 0 18 -6 24 -14z m-2149 -41 c0 -31 -26 -43 -47 -22 -21 21 -9 47
22 47 20 0 25 -5 25 -25z m2365 -5 c0 -18 -6 -26 -23 -28 -13 -2 -25 3 -28 12
-10 26 4 48 28 44 17 -2 23 -10 23 -28z m-1111 -23 c13 -21 -13 -51 -36 -42
-24 10 -29 32 -11 50 18 18 32 16 47 -8z m990 17 c21 -8 20 -41 -1 -52 -26
-13 -43 -4 -43 22 0 34 12 42 44 30z m-2190 -87 c8 -12 7 -21 -5 -32 -21 -21
-49 -9 -49 20 0 36 34 44 54 12z m1161 -57 c0 -18 -6 -26 -23 -28 -24 -4 -38
18 -28 44 3 9 15 14 28 12 17 -2 23 -10 23 -28z m-1111 -55 c2 -7 -2 -21 -9
-32 -11 -14 -18 -16 -31 -7 -25 15 -27 29 -9 47 17 17 40 13 49 -8z m1086 -58
c0 -7 -5 -18 -12 -25 -18 -18 -36 -15 -48 7 -7 15 -6 23 6 35 12 12 20 13 35
6 10 -6 19 -16 19 -23z m-1046 -52 c9 -24 -4 -45 -29 -45 -13 0 -25 7 -29 15
-9 24 4 45 29 45 13 0 25 -7 29 -15z m1001 -65 c0 -18 -6 -26 -23 -28 -24 -4
-38 18 -28 44 3 9 15 14 28 12 17 -2 23 -10 23 -28z m-981 -36 c21 -8 21 -50
0 -58 -32 -12 -57 27 -32 52 14 14 12 14 32 6z m934 -56 c18 -18 15 -36 -7
-48 -15 -7 -23 -6 -35 6 -12 12 -13 20 -6 35 12 22 30 25 48 7z m-883 -88 c0
-18 -6 -26 -23 -28 -24 -4 -38 18 -28 44 3 9 15 14 28 12 17 -2 23 -10 23 -28z
m839 -33 c8 -12 7 -21 -5 -32 -21 -21 -49 -9 -49 20 0 36 34 44 54 12z m-795
-61 c16 -20 3 -46 -24 -46 -13 0 -26 7 -29 16 -7 19 10 44 29 44 7 0 18 -6 24
-14z m741 -45 c7 -15 6 -23 -6 -35 -12 -12 -20 -13 -35 -6 -22 12 -25 30 -7
48 18 18 36 15 48 -7z m-676 -66 c7 -20 -18 -49 -38 -42 -25 10 -32 38 -12 53
20 14 42 9 50 -11z m605 -29 c25 -30 -16 -67 -44 -40 -18 19 -19 26 -3 42 16
16 33 15 47 -2z m-531 -73 c-4 -35 -43 -45 -53 -14 -9 28 1 41 31 41 22 0 25
-4 22 -27z m450 -30 c3 -22 -28 -40 -48 -28 -12 7 -13 38 -3 49 15 14 48 1 51
-21z m-349 -17 c16 -20 3 -46 -24 -46 -13 0 -26 7 -29 16 -7 19 10 44 29 44 7
0 18 -6 24 -14z m236 -36 c0 -18 -6 -26 -23 -28 -13 -2 -25 3 -28 12 -10 26 4
48 28 44 17 -2 23 -10 23 -28z m-117 -7 c-4 -35 -43 -45 -53 -14 -9 28 1 41
31 41 22 0 25 -4 22 -27z"/>
</g>
</svg>
